<mxfile host="Electron" agent="Mozilla/5.0 (Windows NT 10.0; Win64; x64) AppleWebKit/537.36 (KHTML, like Gecko) draw.io/27.0.2 Chrome/134.0.6998.205 Electron/35.3.0 Safari/537.36" version="27.0.2">
  <diagram name="Page-1" id="nMK7wGiNTNxS1q2FWcUp">
    <mxGraphModel dx="1554" dy="914" grid="1" gridSize="10" guides="1" tooltips="1" connect="1" arrows="1" fold="1" page="1" pageScale="1" pageWidth="3300" pageHeight="4681" math="0" shadow="0">
      <root>
        <mxCell id="0" />
        <mxCell id="1" parent="0" />
        <mxCell id="sJuday59ZZZzxu0nJ7RU-22" value="" style="rounded=0;whiteSpace=wrap;html=1;strokeColor=none;" parent="1" vertex="1">
          <mxGeometry x="240" y="60" width="870" height="410" as="geometry" />
        </mxCell>
        <mxCell id="sJuday59ZZZzxu0nJ7RU-1" value="" style="rounded=1;whiteSpace=wrap;html=1;" parent="1" vertex="1">
          <mxGeometry x="380" y="150" width="580" height="230" as="geometry" />
        </mxCell>
        <mxCell id="sJuday59ZZZzxu0nJ7RU-2" value="" style="ellipse;whiteSpace=wrap;html=1;aspect=fixed;" parent="1" vertex="1">
          <mxGeometry x="350" y="237.5" width="55" height="55" as="geometry" />
        </mxCell>
        <mxCell id="sJuday59ZZZzxu0nJ7RU-3" value="" style="html=1;shadow=0;dashed=0;align=center;verticalAlign=middle;shape=mxgraph.arrows2.arrow;dy=0.6;dx=40;flipH=1;notch=0;" parent="1" vertex="1">
          <mxGeometry x="361" y="252.5" width="25" height="25" as="geometry" />
        </mxCell>
        <mxCell id="sJuday59ZZZzxu0nJ7RU-4" value="" style="ellipse;whiteSpace=wrap;html=1;aspect=fixed;movable=1;resizable=1;rotatable=1;deletable=1;editable=1;locked=0;connectable=1;" parent="1" vertex="1">
          <mxGeometry x="932" y="237.5" width="55" height="55" as="geometry" />
        </mxCell>
        <mxCell id="sJuday59ZZZzxu0nJ7RU-5" value="" style="html=1;shadow=0;dashed=0;align=center;verticalAlign=middle;shape=mxgraph.arrows2.arrow;dy=0.6;dx=40;flipH=1;notch=0;movable=1;resizable=1;rotatable=1;deletable=1;editable=1;locked=0;connectable=1;direction=west;" parent="1" vertex="1">
          <mxGeometry x="950" y="252.5" width="25" height="25" as="geometry" />
        </mxCell>
        <mxCell id="sJuday59ZZZzxu0nJ7RU-14" value="" style="group" parent="1" vertex="1" connectable="0">
          <mxGeometry x="600" y="390" width="140" height="20" as="geometry" />
        </mxCell>
        <mxCell id="sJuday59ZZZzxu0nJ7RU-6" value="" style="ellipse;whiteSpace=wrap;html=1;aspect=fixed;fillColor=#000000;" parent="sJuday59ZZZzxu0nJ7RU-14" vertex="1">
          <mxGeometry width="20" height="20" as="geometry" />
        </mxCell>
        <mxCell id="sJuday59ZZZzxu0nJ7RU-7" value="" style="ellipse;whiteSpace=wrap;html=1;aspect=fixed;" parent="sJuday59ZZZzxu0nJ7RU-14" vertex="1">
          <mxGeometry x="40" width="20" height="20" as="geometry" />
        </mxCell>
        <mxCell id="sJuday59ZZZzxu0nJ7RU-8" value="" style="ellipse;whiteSpace=wrap;html=1;aspect=fixed;" parent="sJuday59ZZZzxu0nJ7RU-14" vertex="1">
          <mxGeometry x="80" width="20" height="20" as="geometry" />
        </mxCell>
        <mxCell id="sJuday59ZZZzxu0nJ7RU-9" value="" style="ellipse;whiteSpace=wrap;html=1;aspect=fixed;" parent="sJuday59ZZZzxu0nJ7RU-14" vertex="1">
          <mxGeometry x="120" width="20" height="20" as="geometry" />
        </mxCell>
        <mxCell id="sJuday59ZZZzxu0nJ7RU-17" value="&lt;font style=&quot;font-size: 20px;&quot;&gt;コンテンツ領域&lt;/font&gt;" style="text;html=1;align=center;verticalAlign=middle;whiteSpace=wrap;rounded=0;" parent="1" vertex="1">
          <mxGeometry x="590" y="262.5" width="160" height="30" as="geometry" />
        </mxCell>
        <mxCell id="sJuday59ZZZzxu0nJ7RU-18" value="&lt;font style=&quot;font-size: 20px;&quot;&gt;「前へ」 ボタン&lt;/font&gt;" style="text;html=1;align=center;verticalAlign=middle;whiteSpace=wrap;rounded=0;" parent="1" vertex="1">
          <mxGeometry x="260" y="250" width="100" height="30" as="geometry" />
        </mxCell>
        <mxCell id="sJuday59ZZZzxu0nJ7RU-19" value="&lt;font style=&quot;font-size: 20px;&quot;&gt;「次へ」 ボタン&lt;/font&gt;" style="text;html=1;align=center;verticalAlign=middle;whiteSpace=wrap;rounded=0;" parent="1" vertex="1">
          <mxGeometry x="975" y="250" width="100" height="30" as="geometry" />
        </mxCell>
        <mxCell id="sJuday59ZZZzxu0nJ7RU-20" value="&lt;font style=&quot;font-size: 20px;&quot;&gt;スクロールマーカー&lt;/font&gt;" style="text;html=1;align=center;verticalAlign=middle;whiteSpace=wrap;rounded=0;" parent="1" vertex="1">
          <mxGeometry x="570" y="420" width="200" height="30" as="geometry" />
        </mxCell>
      </root>
    </mxGraphModel>
  </diagram>
</mxfile>
